<svg width="50" height="50" viewBox="0 0 50 50" fill="none" xmlns="http://www.w3.org/2000/svg">
<g clip-path="url(#clip0_19_56)">
<path d="M25.0001 23.6111C26.9229 23.6111 28.8026 23.0409 30.4014 21.9726C32.0002 20.9043 33.2464 19.3859 33.9822 17.6094C34.7181 15.8329 34.9106 13.8781 34.5355 11.9921C34.1603 10.1062 33.2344 8.37388 31.8747 7.0142C30.515 5.65453 28.7827 4.72857 26.8968 4.35344C25.0108 3.97831 23.056 4.17084 21.2795 4.90669C19.503 5.64254 17.9846 6.88866 16.9163 8.48747C15.848 10.0863 15.2778 11.966 15.2778 13.8889C15.2778 16.4673 16.3021 18.9402 18.1254 20.7635C19.9487 22.5868 22.4216 23.6111 25.0001 23.6111ZM25.0001 6.94441C26.3735 6.94441 27.7162 7.35169 28.8582 8.11476C30.0002 8.87782 30.8903 9.9624 31.4159 11.2313C31.9415 12.5003 32.079 13.8966 31.8111 15.2436C31.5431 16.5907 30.8817 17.8281 29.9105 18.7993C28.9393 19.7705 27.7019 20.4319 26.3548 20.6999C25.0078 20.9678 23.6115 20.8303 22.3425 20.3047C21.0736 19.7791 19.989 18.889 19.226 17.747C18.4629 16.605 18.0556 15.2623 18.0556 13.8889C18.0556 12.0471 18.7873 10.2807 20.0896 8.97839C21.3919 7.67605 23.1583 6.94441 25.0001 6.94441Z" fill="black"/>
<path d="M42.3195 33.8472C40.0921 31.4931 37.408 29.6179 34.4313 28.3364C31.4546 27.0549 28.2478 26.3939 25.007 26.3939C21.7661 26.3939 18.5593 27.0549 15.5826 28.3364C12.6059 29.6179 9.92181 31.4931 7.69446 33.8472C7.21156 34.363 6.94337 35.0434 6.94446 35.75V43.0556C6.94446 43.7923 7.23712 44.4988 7.75805 45.0198C8.27899 45.5407 8.98553 45.8333 9.72224 45.8333H40.2778C41.0145 45.8333 41.721 45.5407 42.242 45.0198C42.7629 44.4988 43.0556 43.7923 43.0556 43.0556V35.75C43.0604 35.0453 42.7973 34.3652 42.3195 33.8472ZM40.2778 43.0556H9.72224V35.7361C11.6906 33.6635 14.0601 32.013 16.6866 30.8851C19.3131 29.7573 22.1416 29.1757 25 29.1757C27.8584 29.1757 30.6869 29.7573 33.3134 30.8851C35.9399 32.013 38.3094 33.6635 40.2778 35.7361V43.0556Z" fill="black"/>
</g>
<defs>
<clipPath id="clip0_19_56">
<rect width="50" height="50" fill="white"/>
</clipPath>
</defs>
</svg>
