<svg width="50" height="50" viewBox="0 0 50 50" fill="none" xmlns="http://www.w3.org/2000/svg">
<path d="M25 16.4062C23.3003 16.4062 21.6388 16.9103 20.2256 17.8545C18.8123 18.7988 17.7108 20.141 17.0604 21.7113C16.41 23.2816 16.2398 25.0095 16.5714 26.6765C16.903 28.3436 17.7214 29.8748 18.9233 31.0767C20.1251 32.2785 21.6564 33.097 23.3234 33.4286C24.9905 33.7602 26.7184 33.59 28.2887 32.9396C29.859 32.2891 31.2011 31.1877 32.1454 29.7744C33.0897 28.3612 33.5937 26.6997 33.5937 25C33.5912 22.7216 32.6849 20.5372 31.0738 18.9261C29.4627 17.3151 27.2784 16.4088 25 16.4062ZM25 32.0312C23.6093 32.0312 22.2499 31.6189 21.0936 30.8463C19.9373 30.0737 19.0361 28.9755 18.504 27.6907C17.9718 26.4059 17.8325 24.9922 18.1038 23.6283C18.3751 22.2643 19.0448 21.0115 20.0281 20.0281C21.0115 19.0448 22.2643 18.3751 23.6283 18.1038C24.9922 17.8325 26.4059 17.9718 27.6907 18.504C28.9755 19.0361 30.0737 19.9373 30.8463 21.0936C31.6189 22.2499 32.0312 23.6093 32.0312 25C32.0312 26.8648 31.2904 28.6532 29.9718 29.9718C28.6532 31.2904 26.8648 32.0312 25 32.0312ZM41.3926 25.6855C41.4095 25.2285 41.4095 24.7728 41.3926 24.3183L44.4844 20.4531C44.5611 20.3577 44.6143 20.2456 44.6398 20.1258C44.6652 20.0061 44.6622 19.882 44.6308 19.7637C44.1681 18.0336 43.4778 16.3726 42.5781 14.8242C42.5178 14.7178 42.4334 14.627 42.3317 14.5591C42.2299 14.4913 42.1136 14.4483 41.9922 14.4336L37.0723 13.8867C36.7628 13.5519 36.4403 13.2294 36.1055 12.9199L35.5605 8.0078C35.5458 7.88637 35.5028 7.77009 35.435 7.66832C35.3671 7.56655 35.2763 7.48213 35.1699 7.42186C33.6235 6.52418 31.9652 5.83463 30.2383 5.37108C30.1201 5.3395 29.9961 5.33612 29.8763 5.36123C29.7566 5.38633 29.6444 5.43921 29.5488 5.51561L25.6855 8.60741C25.2285 8.58918 24.7728 8.58918 24.3183 8.60741L20.4492 5.51561C20.3538 5.43888 20.2417 5.38564 20.1219 5.3602C20.0022 5.33475 19.8781 5.33781 19.7598 5.36913C18.0311 5.83218 16.3714 6.52245 14.8242 7.42186C14.7178 7.48213 14.627 7.56655 14.5591 7.66832C14.4913 7.77009 14.4483 7.88637 14.4336 8.0078L13.8867 12.9277C13.5519 13.2372 13.2294 13.5597 12.9199 13.8945L8.0078 14.4394C7.88637 14.4541 7.77009 14.4971 7.66832 14.565C7.56655 14.6328 7.48213 14.7236 7.42186 14.8301C6.52418 16.3765 5.83463 18.0347 5.37108 19.7617C5.3395 19.8799 5.33612 20.0039 5.36123 20.1236C5.38633 20.2434 5.43921 20.3556 5.51561 20.4512L8.60741 24.3144C8.58918 24.7715 8.58918 25.2272 8.60741 25.6816L5.51561 29.5508C5.43888 29.6462 5.38564 29.7583 5.3602 29.878C5.33475 29.9978 5.33781 30.1219 5.36913 30.2402C5.83218 31.9689 6.52245 33.6286 7.42186 35.1758C7.48213 35.2822 7.56655 35.373 7.66832 35.4408C7.77009 35.5087 7.88637 35.5517 8.0078 35.5664L12.9277 36.1133C13.2363 36.4473 13.5605 36.7715 13.8945 37.0801L14.4414 42.0019C14.4561 42.1234 14.4991 42.2396 14.5669 42.3414C14.6348 42.4432 14.7256 42.5276 14.832 42.5879C16.3807 43.4833 18.0409 44.1702 19.7695 44.6308C19.8877 44.6624 20.0117 44.6658 20.1315 44.6407C20.2512 44.6156 20.3634 44.5627 20.459 44.4863L24.3223 41.3945C24.7793 41.4114 25.235 41.4114 25.6894 41.3945L29.5547 44.4863C29.6932 44.5974 29.8654 44.658 30.043 44.6582C30.1089 44.658 30.1745 44.6495 30.2383 44.6328C31.9677 44.1693 33.6281 43.4784 35.1758 42.5781C35.2822 42.5178 35.373 42.4334 35.4408 42.3317C35.5087 42.2299 35.5517 42.1136 35.5664 41.9922L36.1133 37.0723C36.4473 36.7637 36.7715 36.4394 37.0801 36.1055L42.0019 35.5586C42.1234 35.5439 42.2396 35.5009 42.3414 35.433C42.4432 35.3652 42.5276 35.2744 42.5879 35.168C43.4833 33.6193 44.1702 31.9591 44.6308 30.2305C44.6624 30.1122 44.6658 29.9883 44.6407 29.8685C44.6156 29.7488 44.5627 29.6366 44.4863 29.541L41.3926 25.6855ZM41.4258 34.0508L36.6074 34.5859C36.4152 34.6073 36.2377 34.6991 36.1094 34.8437C35.7133 35.2906 35.2906 35.7133 34.8437 36.1094C34.6991 36.2377 34.6073 36.4152 34.5859 36.6074L34.0508 41.4238C32.8354 42.0956 31.5488 42.6295 30.2148 43.0156L26.4297 39.9863C26.2909 39.8759 26.1187 39.816 25.9414 39.8164H25.8945C25.2987 39.8535 24.7012 39.8535 24.1055 39.8164C23.9122 39.8048 23.7215 39.8653 23.5703 39.9863L19.7871 43.0137C18.4526 42.6292 17.1653 42.0965 15.9492 41.4258L15.414 36.6074C15.3927 36.4152 15.3009 36.2377 15.1562 36.1094C14.7094 35.7133 14.2867 35.2906 13.8906 34.8437C13.7622 34.6991 13.5848 34.6073 13.3926 34.5859L8.57616 34.0508C7.90434 32.8354 7.37043 31.5488 6.98436 30.2148L10.0137 26.4297C10.1347 26.2785 10.1952 26.0878 10.1836 25.8945C10.1484 25.2987 10.1484 24.7013 10.1836 24.1055C10.1952 23.9122 10.1347 23.7215 10.0137 23.5703L6.98631 19.7871C7.37082 18.4526 7.90343 17.1653 8.5742 15.9492L13.3926 15.414C13.5848 15.3927 13.7622 15.3009 13.8906 15.1562C14.2867 14.7094 14.7094 14.2867 15.1562 13.8906C15.3009 13.7622 15.3927 13.5848 15.414 13.3926L15.9492 8.57616C17.1646 7.90434 18.4512 7.37043 19.7851 6.98436L23.5703 10.0137C23.7215 10.1347 23.9122 10.1952 24.1055 10.1836C24.7012 10.1465 25.2987 10.1465 25.8945 10.1836C26.0878 10.1952 26.2785 10.1347 26.4297 10.0137L30.2129 6.98631C31.5474 7.37082 32.8347 7.90343 34.0508 8.5742L34.5859 13.3926C34.6073 13.5848 34.6991 13.7622 34.8437 13.8906C35.2906 14.2867 35.7133 14.7094 36.1094 15.1562C36.2377 15.3009 36.4152 15.3927 36.6074 15.414L41.4238 15.9492C42.0956 17.1646 42.6295 18.4512 43.0156 19.7851L39.9863 23.5703C39.8653 23.7215 39.8048 23.9122 39.8164 24.1055C39.8515 24.7013 39.8515 25.2987 39.8164 25.8945C39.8048 26.0878 39.8653 26.2785 39.9863 26.4297L43.0137 30.2129C42.6292 31.5474 42.0965 32.8347 41.4258 34.0508Z" fill="white"/>
</svg>
