<svg width="50" height="50" viewBox="0 0 50 50" fill="none" xmlns="http://www.w3.org/2000/svg">
<path d="M43.75 10.1562H6.25C6.0428 10.1562 5.84409 10.2386 5.69757 10.3851C5.55106 10.5316 5.46875 10.7303 5.46875 10.9375V37.5C5.46875 38.1216 5.71568 38.7177 6.15522 39.1573C6.59476 39.5968 7.1909 39.8438 7.8125 39.8438H42.1875C42.8091 39.8438 43.4052 39.5968 43.8448 39.1573C44.2843 38.7177 44.5312 38.1216 44.5312 37.5V10.9375C44.5312 10.7303 44.4489 10.5316 44.3024 10.3851C44.1559 10.2386 43.9572 10.1562 43.75 10.1562ZM7.03125 21.0938H16.4062V28.9062H7.03125V21.0938ZM17.9688 21.0938H42.9688V28.9062H17.9688V21.0938ZM42.9688 11.7188V19.5312H7.03125V11.7188H42.9688ZM7.03125 37.5V30.4688H16.4062V38.2812H7.8125C7.6053 38.2812 7.40659 38.1989 7.26007 38.0524C7.11356 37.9059 7.03125 37.7072 7.03125 37.5ZM42.1875 38.2812H17.9688V30.4688H42.9688V37.5C42.9688 37.7072 42.8864 37.9059 42.7399 38.0524C42.5934 38.1989 42.3947 38.2812 42.1875 38.2812Z" fill="white"/>
</svg>
